<svg width="24" height="24" viewBox="0 0 24 24" xmlns="http://www.w3.org/2000/svg">
    <g fill="none" fill-rule="evenodd">
        <path d="M0 0h24v24H0z"/>
        <path d="M5.3 18.258c0 1.687.868 2.562 2.54 2.562h8.32c1.672 0 2.54-.875 2.54-2.562V6.468c0-1.679-.868-2.562-2.54-2.562H7.84c-1.672 0-2.54.883-2.54 2.563v11.789zm1.532-.094V6.562c0-.726.375-1.125 1.133-1.125h8.062c.758 0 1.141.399 1.141 1.125v11.602c0 .727-.383 1.125-1.14 1.125H7.964c-.758 0-1.133-.398-1.133-1.125zm2.313-9.516h5.718c.282 0 .5-.218.5-.5a.485.485 0 0 0-.5-.484H9.145c-.29 0-.508.211-.508.484 0 .282.218.5.508.5zm0 2.672h5.718c.282 0 .5-.218.5-.5a.485.485 0 0 0-.5-.484H9.145c-.29 0-.508.21-.508.484 0 .282.218.5.508.5zm0 2.672h2.765c.281 0 .492-.21.492-.484A.494.494 0 0 0 11.91 13H9.145a.502.502 0 0 0-.508.508c0 .273.218.484.508.484z" fill="#F7CC75" fill-rule="nonzero"/>
    </g>
</svg>
