<svg width="24" height="24" viewBox="0 0 24 24" xmlns="http://www.w3.org/2000/svg">
    <defs>
        <radialGradient cx="26.563%" cy="107.702%" fx="26.563%" fy="107.702%" r="99.107%" id="j1cpvxf41a">
            <stop stop-color="#FD5" offset="0%"/>
            <stop stop-color="#FD5" offset="10%"/>
            <stop stop-color="#FF543E" offset="50%"/>
            <stop stop-color="#C837AB" offset="100%"/>
        </radialGradient>
        <radialGradient cx="-16.751%" cy="7.204%" fx="-16.751%" fy="7.204%" r="44.301%" id="bcilbu3h4b">
            <stop stop-color="#3771C8" offset="0%"/>
            <stop stop-color="#3771C8" offset="12.8%"/>
            <stop stop-color="#60F" stop-opacity="0" offset="100%"/>
        </radialGradient>
    </defs>
    <g fill="none" fill-rule="evenodd">
        <path d="M0 0h24v24H0z"/>
        <g fill-rule="nonzero">
            <path d="M10.003 0C5.828 0 4.607.004 4.37.024 3.513.095 2.98.23 2.4.519c-.448.223-.801.48-1.15.842C.616 2.02.231 2.83.092 3.794c-.068.467-.087.563-.091 2.952-.002.796 0 1.844 0 3.25 0 4.173.004 5.393.024 5.63.07.834.2 1.358.477 1.932a4.213 4.213 0 0 0 2.73 2.231c.413.106.868.165 1.452.193.248.01 2.772.018 5.298.018 2.526 0 5.051-.003 5.293-.015.677-.032 1.07-.085 1.504-.197a4.187 4.187 0 0 0 2.73-2.236c.272-.56.41-1.105.472-1.895.013-.172.019-2.92.019-5.664 0-2.744-.006-5.486-.02-5.658-.063-.804-.2-1.344-.48-1.914a3.964 3.964 0 0 0-.857-1.174C17.982.615 17.173.231 16.21.092 15.74.024 15.649.004 13.258 0h-3.255z" fill="url(#j1cpvxf41a)" transform="translate(2 2)"/>
            <path d="M10.003 0C5.828 0 4.607.004 4.37.024 3.513.095 2.98.23 2.4.519c-.448.223-.801.48-1.15.842C.616 2.02.231 2.83.092 3.794c-.068.467-.087.563-.091 2.952-.002.796 0 1.844 0 3.25 0 4.173.004 5.393.024 5.63.07.834.2 1.358.477 1.932a4.213 4.213 0 0 0 2.73 2.231c.413.106.868.165 1.452.193.248.01 2.772.018 5.298.018 2.526 0 5.051-.003 5.293-.015.677-.032 1.07-.085 1.504-.197a4.187 4.187 0 0 0 2.73-2.236c.272-.56.41-1.105.472-1.895.013-.172.019-2.92.019-5.664 0-2.744-.006-5.486-.02-5.658-.063-.804-.2-1.344-.48-1.914a3.964 3.964 0 0 0-.857-1.174C17.982.615 17.173.231 16.21.092 15.74.024 15.649.004 13.258 0h-3.255z" fill="url(#bcilbu3h4b)" transform="translate(2 2)"/>
            <path d="M11.999 4.616c-2.006 0-2.257.008-3.045.044-.786.036-1.322.16-1.792.343a3.615 3.615 0 0 0-1.308.852c-.41.41-.663.822-.852 1.308-.183.47-.307 1.007-.343 1.793-.035.787-.044 1.04-.044 3.045 0 2.006.009 2.256.044 3.044.037.786.161 1.323.343 1.793.19.485.441.897.852 1.308.41.41.822.664 1.307.852.47.183 1.007.307 1.793.343.787.036 1.039.045 3.044.045s2.256-.009 3.043-.045c.786-.036 1.324-.16 1.793-.343a3.612 3.612 0 0 0 1.307-.852c.411-.41.663-.823.852-1.308.182-.47.307-1.007.344-1.793.035-.787.044-1.038.044-3.044 0-2.006-.01-2.258-.044-3.045-.037-.787-.162-1.323-.344-1.793a3.625 3.625 0 0 0-.852-1.308 3.608 3.608 0 0 0-1.307-.852c-.47-.182-1.008-.307-1.794-.343-.787-.036-1.038-.044-3.044-.044H12zm-.663 1.33H12c1.971 0 2.205.008 2.983.043.72.033 1.11.153 1.37.254.345.134.591.294.85.553.258.258.418.504.552.849.1.26.221.65.254 1.37.036.78.043 1.013.043 2.984s-.007 2.205-.043 2.983c-.033.72-.153 1.111-.254 1.371-.134.345-.294.59-.553.849a2.283 2.283 0 0 1-.848.552c-.26.102-.651.222-1.37.255-.78.035-1.013.043-2.984.043-1.972 0-2.205-.008-2.984-.043-.72-.034-1.11-.154-1.37-.255a2.287 2.287 0 0 1-.85-.552 2.29 2.29 0 0 1-.552-.85c-.101-.26-.222-.65-.255-1.37-.035-.779-.042-1.013-.042-2.985s.007-2.204.042-2.983c.033-.72.154-1.11.255-1.371.133-.345.294-.591.552-.85.259-.258.505-.418.85-.552.26-.102.65-.222 1.37-.255.681-.03.945-.04 2.321-.041v.001zm4.604 1.227a.886.886 0 1 0 0 1.772.886.886 0 0 0 0-1.773zm-3.941 1.035A3.792 3.792 0 1 0 12 15.793a3.792 3.792 0 0 0-.002-7.585zm0 1.331a2.461 2.461 0 1 1-.001 4.923 2.461 2.461 0 0 1 0-4.923z" fill="#FFF"/>
        </g>
    </g>
</svg>
