<svg width="125" height="29" viewBox="0 0 125 29" xmlns="http://www.w3.org/2000/svg">
    <g fill="none" fill-rule="evenodd">
        <path d="M0 .174h125v28H0z"/>
        <path d="M49.68 4.046c.341.248.638.393.89.435.253.041.583.067.99.077.215.208.342.463.381.766.04.303.106.6.2.893.15.493.312.973.486 1.442.173.468.311.95.416 1.445.062.294.163.57.301.829.139.258.24.527.3.805.043.217.056.463.04.738-.018.274.026.51.13.709l.184.365c.087.168.163.344.227.528.064.185.125.37.182.554.149.462.288.959.418 1.492s.315 1.012.557 1.438a.652.652 0 0 0 .38.308c.167.054.352.087.556.1.204.013.404.01.598-.008.195-.018.362-.03.503-.038l.234-.012a.885.885 0 0 1 .283.032c.07.122.106.23.111.323a.561.561 0 0 1-.164.454.488.488 0 0 0-.167.385c.004.078.04.162.107.252a1.25 1.25 0 0 0-.282-.008c-.36.018-.707.1-1.044.242.139.259.318.472.538.64.22.17.451.325.694.469a.777.777 0 0 1 .481-.213c.188-.01.365.024.534.101.168.077.346.111.533.101.14-.007.24-.036.3-.086.133.134.242.273.328.417.085.144.194.275.325.394a.953.953 0 0 1-.265.542c-.14.14-.31.255-.51.343a2.49 2.49 0 0 1-.612.185c-.21.034-.4.056-.571.065a2.018 2.018 0 0 1-.223 0 2.018 2.018 0 0 0-.223 0c-.078.004-.115.045-.111.123.004.078-.032.135-.109.17a1.192 1.192 0 0 0-.473-.07c-.109.007-.214.02-.314.041-.101.02-.198.034-.292.039a.573.573 0 0 1-.271-.033.661.661 0 0 1-.146-.098 1.925 1.925 0 0 1-.124-.123.433.433 0 0 0-.182-.107c-.112-.041-.202-.045-.27-.01-.069.035-.177-.006-.324-.124a2.162 2.162 0 0 1-.51-.548c-.144-.22-.285-.45-.423-.693a17.425 17.425 0 0 0-.437-.729 3.004 3.004 0 0 0-.526-.63l-.187.01c-.281.015-.47.143-.567.382a1.527 1.527 0 0 1-.243-.163 1.158 1.158 0 0 0-.267-.162c-.353.128-.723.241-1.109.34a5.962 5.962 0 0 1-1.164.178l-.327.017a1.114 1.114 0 0 1-.307-.03c-.153.07-.29.152-.41.244a.727.727 0 0 1-.414.15.755.755 0 0 1-.333-.076c-.075.004-.116.031-.123.082v.042c.012.078-.036.12-.146.125l-.21.011c-.219.012-.433.03-.643.057-.21.027-.424.046-.642.057l-.11.004a7.676 7.676 0 0 1-.54.124c-.155.04-.299.059-.432.058-.077 0-.156.006-.236.019l.013-.03a2.092 2.092 0 0 1-.084.192.44.44 0 0 1-.121.147c-.053.042-.126.057-.22.046a.729.729 0 0 1-.212.457c-.119.116-.173.283-.161.502a1.336 1.336 0 0 0-.403.373c-.102.146-.203.3-.304.462a6.669 6.669 0 0 1-.316.462c-.11.147-.249.264-.416.35-.073.098-.09.248-.047.449-.165.15-.369.285-.613.408a1.76 1.76 0 0 1-.693.2c-.453.024-.777-.202-.974-.676a3.91 3.91 0 0 1 .087-1.026c.038-.166.1-.318.187-.455a.81.81 0 0 1 .383-.314c-.006-.112-.04-.196-.104-.25l-.052-.035c-.097-.05-.14-.145-.133-.287.196-.107.379-.228.549-.362l.205-.04c-.558.099-1.104.214-1.637.343-.533.13-1.028.3-1.487.512a1.648 1.648 0 0 1-.146-.098.249.249 0 0 0-.167-.05c-.156.009-.303.04-.44.094a.978.978 0 0 1-.42.069 1.657 1.657 0 0 1-.492.225 6.485 6.485 0 0 1-.534.122 3.937 3.937 0 0 0-.52.133 1.36 1.36 0 0 0-.479.283 1.126 1.126 0 0 0-.462-.081c-.18.001-.304-.05-.372-.157-.35.19-.722.32-1.118.387a7.762 7.762 0 0 1-1.203.11 7.714 7.714 0 0 1-1.962-.284 5.954 5.954 0 0 1-.982-.371 1.898 1.898 0 0 1-.71-.561 1.544 1.544 0 0 1-.261-.503.639.639 0 0 0-.35-.404c.028-.361.064-.715.109-1.062.044-.346.088-.7.132-1.063a11.365 11.365 0 0 0 1.592-1.867c.289-.156.557-.342.804-.559.246-.216.493-.436.74-.66.246-.224.493-.445.74-.661a5.42 5.42 0 0 1 .802-.582.695.695 0 0 1 .185-.28 8.11 8.11 0 0 1 .258-.224c.09-.075.172-.158.245-.248a.721.721 0 0 0 .147-.324 5.428 5.428 0 0 0 1.363-1.316 3.83 3.83 0 0 0 .708-1.727 2.065 2.065 0 0 0-.924-.385 8.816 8.816 0 0 0-1.05-.098c-.313 0-.636.018-.971.051a7.434 7.434 0 0 1-1.02.03 4.867 4.867 0 0 1-1.053.266c-.365.05-.727.097-1.084.14a8.13 8.13 0 0 0-1.058.196c-.347.088-.68.235-.998.44a.637.637 0 0 1-.177-.015.637.637 0 0 0-.176-.014c-.5.01-.963.132-1.39.366l-1.254.688a.36.36 0 0 0-.04.143c.005.093.03.182.073.266a.644.644 0 0 1 .073.266c-.015.016-.022.032-.021.048 0 .015-.006.031-.021.048-.012.079-.028.15-.048.214-.02.063-.043.135-.07.214a5.028 5.028 0 0 0-.204 1.49c.004.27.014.538.031.801l.031.392c.036.39.057.788.063 1.194a6.609 6.609 0 0 1-.16 1.417c.097.37.188.76.272 1.17.084.41.184.816.299 1.217.114.4.248.789.4 1.164.154.376.348.73.585 1.061-.014.032-.005.055.027.069.032.014.063.02.094.019l.188-.01c.078-.004.11.025.098.088.034.046.06.087.077.125.018.039.05.072.1.1.033.046.036.108.01.188 0 .313-.063.606-.19.878a2.33 2.33 0 0 0-.212.88 2.14 2.14 0 0 1-.51.097 1.412 1.412 0 0 1-.715-.185 2.96 2.96 0 0 1-.587-.45c-.181-.18-.355-.362-.521-.549a2.853 2.853 0 0 0-.541-.476c-.133-.43-.263-.91-.392-1.434-.13-.526-.321-.97-.575-1.331.055-.144.077-.317.067-.52 0-.313-.044-.62-.13-.92a2.835 2.835 0 0 1-.107-.922 2.32 2.32 0 0 1 .031-.518 3.93 3.93 0 0 0 .055-.52 2.331 2.331 0 0 0-.122-.767 2.331 2.331 0 0 1-.123-.768c.01-.126.03-.248.063-.367a.968.968 0 0 1 .16-.326.944.944 0 0 1-.1-.534c.002-.266.02-.518.055-.754a5.42 5.42 0 0 0 .057-.707 2.747 2.747 0 0 0-.043-.362 2.38 2.38 0 0 0-.088-.335l-.214-.06a.555.555 0 0 0-.265.085.967.967 0 0 0-.214.175c-.06.066-.111.12-.156.161a.22.22 0 0 1-.137.066.543.543 0 0 1-.106-.006.543.543 0 0 0-.106-.007c-.031.002-.088.036-.17.103-.083.067-.181.139-.295.215-.113.077-.223.153-.328.229a.967.967 0 0 1-.25.142.862.862 0 0 1-.42-.154 4.595 4.595 0 0 1-.294-.243 2.517 2.517 0 0 0-.281-.22.477.477 0 0 0-.356-.063.802.802 0 0 1-.098-.3 1.539 1.539 0 0 1-.005-.329l-.02-.374.074-.139.085-.127-.264.044a18.58 18.58 0 0 0-.743.149c-.17.04-.34.092-.509.156a8.888 8.888 0 0 1-.53.18.78.78 0 0 1-.302.051 1.539 1.539 0 0 0-.327.029c-.374.035-.778.084-1.213.146a2.753 2.753 0 0 0-1.151.424 4.663 4.663 0 0 0-.496-.045 5.692 5.692 0 0 0-.516.004c-.374.02-.782.076-1.223.17-.441.093-.828.25-1.16.471a1.275 1.275 0 0 0-.25-.057 1.649 1.649 0 0 0-.294-.008.163.163 0 0 0-.07.015.163.163 0 0 1-.069.015.822.822 0 0 0 .08.407c.062.13.165.23.31.3a1.634 1.634 0 0 0-.065.567c.014.266.047.53.1.793.053.263.086.527.1.793.016.296-.01.532-.08.708a4.713 4.713 0 0 1 .306 2.038c-.014.18-.015.372-.005.575a.501.501 0 0 0 .209.4.501.501 0 0 1 .172.59c.216-.06.423-.137.621-.233.199-.096.407-.15.625-.162a.97.97 0 0 1 .367.051c.12.041.228.098.326.171a2.289 2.289 0 0 0-.022.26c-.003.093-.002.187.003.28a9.176 9.176 0 0 0 .097.958 2.998 2.998 0 0 1-.402.608c-.155.18-.257.404-.305.673a1.24 1.24 0 0 0-.612.185 4.66 4.66 0 0 0-.486.354c-.15.125-.3.242-.451.352-.151.11-.32.17-.507.179-.234.012-.4-.014-.497-.08a.8.8 0 0 1-.223-.21c-.05-.076-.097-.144-.14-.205-.042-.06-.125-.08-.249-.057a1.836 1.836 0 0 0-.217-.564 11.42 11.42 0 0 0-.32-.511c-.11-.166-.221-.337-.332-.51a2.203 2.203 0 0 1-.251-.54c-.115-.4-.176-.82-.184-1.257a3.174 3.174 0 0 0-.277-1.253 9.196 9.196 0 0 0 .024-1.339 23.88 23.88 0 0 0-.103-1.297 66.235 66.235 0 0 1-.128-1.32.974.974 0 0 1-.224-.469 13.596 13.596 0 0 1-.086-.523 2.704 2.704 0 0 0-.16-.133.322.322 0 0 1-.115-.181 1.282 1.282 0 0 0-.283-.032.953.953 0 0 0-.542.18c-.143.11-.277.168-.402.174a1.275 1.275 0 0 1-.353-.028 1.19 1.19 0 0 0-.33-.03c-.094.005-.144.027-.15.067-.005.039-.038.076-.1.11-.044.034-.152.071-.322.111-.17.04-.36.078-.57.112-.209.035-.41.065-.605.09-.194.026-.322.041-.385.044-.25.013-.443-.027-.581-.122a9.228 9.228 0 0 0-.498-.314.767.767 0 0 0 .037-.19.548.548 0 0 0-.16-.379c-.1-.096-.15-.183-.155-.261a.459.459 0 0 1 .178-.409c.128-.1.194-.252.2-.456.35-.175.71-.311 1.081-.409.37-.097.75-.18 1.137-.247.388-.067.771-.142 1.15-.225a5.972 5.972 0 0 0 1.12-.363 4.128 4.128 0 0 0 .634.014c.468-.025.93-.1 1.384-.226a6.57 6.57 0 0 1 1.408-.226 3.02 3.02 0 0 1 .754.054c.62-.126 1.234-.26 1.845-.402.61-.141 1.242-.268 1.893-.38.31-.048.617-.092.92-.13.303-.04.61-.091.92-.155a.566.566 0 0 0 .24-.094c.053-.042.076-.126.07-.25.143.055.3.078.473.069.265-.014.52-.075.765-.181.244-.107.5-.167.765-.181a1.01 1.01 0 0 1 .164.003.854.854 0 0 0 .141.004c.11-.005.165-.06.168-.161.002-.102.073-.172.212-.21.107-.038.262-.07.464-.095.202-.027.416-.057.64-.093.226-.035.435-.077.628-.126.193-.05.334-.116.423-.199l.15-.266c.282.001.496.111.64.33.145.22.232.462.261.726.066.06.157.082.273.068.117-.014.222-.023.316-.028l.07-.004a1.602 1.602 0 0 1-.087.255l.218-.215c.186-.182.394-.326.623-.431.176.069.359.125.549.17.19.045.387.07.59.075a2.3 2.3 0 0 0 .627-.127c.216-.074.381-.2.497-.378a.899.899 0 0 0 .402.05c.234.003.467-.045.696-.143.23-.098.45-.215.662-.351.313-.001.62-.037.922-.107.301-.07.602-.145.903-.224.301-.078.603-.152.904-.223.301-.07.609-.106.922-.107a6.22 6.22 0 0 0 1.514-.22 5.53 5.53 0 0 1 1.515-.197c.36-.003.716.006 1.069.026.353.02.709.014 1.067-.02.208.083.395.155.563.217.167.061.375.07.623.026.521.395 1 .862 1.435 1.403l.02.398c.004.36-.04.714-.131 1.063-.092.349-.203.695-.333 1.038-.13.343-.274.68-.429 1.008-.154.33-.302.654-.441.974-.966.974-1.933 1.94-2.9 2.898a63.452 63.452 0 0 1-2.999 2.786c-.023.157-.058.3-.106.428a1.364 1.364 0 0 0-.085.403.61.61 0 0 0 .034.186.67.67 0 0 1 .301.16c.09.082.124.193.1.336l.21-.012c.079-.004.12.026.123.088l.375.004c.595 0 1.187-.047 1.777-.14.59-.094 1.183-.195 1.78-.305.596-.11 1.189-.215 1.778-.316.59-.101 1.18-.175 1.772-.222.138-.054.284-.1.439-.14.154-.04.291-.11.411-.21l.07-.003c.11-.006.193.02.251.08.058.06.142.095.252.105a.72.72 0 0 0 .243-.06c.084-.036.173-.064.266-.084.215-.074.443-.125.684-.154.241-.028.478-.064.71-.107l.47-.06c.113-.182.228-.363.343-.546.246-.388.525-.74.837-1.053l-.026-.492a3.592 3.592 0 0 0 .825-1.733c.17-.04.279-.124.327-.252.048-.127.067-.277.058-.449.079-.004.127-.041.147-.113.02-.071.085-.094.196-.069a7.88 7.88 0 0 1 .414-1.054c.155-.321.31-.646.465-.975a8.85 8.85 0 0 0 .405-1.019c.114-.35.192-.737.232-1.162.218-.027.333-.139.346-.335.013-.196.032-.373.055-.53a2.1 2.1 0 0 0 .486-.8c.101-.303.19-.617.267-.942.077-.325.166-.65.266-.976.1-.326.253-.62.458-.88l-.003-.07c-.003-.06-.023-.102-.06-.128l-.042-.02c-.063-.02-.097-.07-.101-.147.014-.017.021-.033.02-.048a.816.816 0 0 0 .402-.409.816.816 0 0 1 .4-.408zm.161 4.873a.725.725 0 0 0-.053.332c.006.109.023.21.051.302.028.092.045.193.051.303a.702.702 0 0 0-.32.38.817.817 0 0 1-.32.404 6.327 6.327 0 0 1-.463 1.444c-.14.305-.287.608-.438.91l-.23.451c-.235.45-.458.904-.668 1.361a7.44 7.44 0 0 0-.49 1.422 1.028 1.028 0 0 0-.38.56 2.134 2.134 0 0 0-.071.661c.144.07.306.105.486.104.18-.002.356-.007.527-.016.172-.01.337-.002.494.02a.817.817 0 0 1 .434.213c.2-.073.42-.128.66-.164.24-.036.436-.113.587-.23.317.093.656.13 1.015.111.187-.01.37-.035.547-.076.178-.04.351-.088.52-.144a.713.713 0 0 1 .336.135c.082.066.2.087.356.063a.364.364 0 0 0 .13-.206.409.409 0 0 1 .106-.205c-.045-.264-.106-.452-.182-.566a1.727 1.727 0 0 1-.198-.423 3.872 3.872 0 0 1-.166-.696 7.067 7.067 0 0 0-.143-.72 38.98 38.98 0 0 0-.446-1.572c-.16-.524-.355-1.03-.584-1.519a.475.475 0 0 0 .08-.262l-.004-.07a1.4 1.4 0 0 1-.334-.558 21.723 21.723 0 0 1-.211-.67 3.758 3.758 0 0 0-.244-.62 1.105 1.105 0 0 0-.435-.459zm15.18 9.743a1.67 1.67 0 0 1-.264.354 3.86 3.86 0 0 0-.288.332.913.913 0 0 1-.359.089c-.132.007-.257.01-.375.008a2.297 2.297 0 0 0-.327.017.376.376 0 0 0-.24.118.475.475 0 0 1-.29-.16c-.068-.083-.18-.128-.336-.136a.38.38 0 0 0-.188.01 7.523 7.523 0 0 1-.687-.809c-.211-.286-.41-.557-.595-.813a16.988 16.988 0 0 0-.232-1.748 3.959 3.959 0 0 0-.092-.418 4.304 4.304 0 0 1-.091-.394 2.926 2.926 0 0 1 .01-.458c.016-.15.029-.288.038-.413.039-.456.085-.904.14-1.345.056-.441.103-.89.141-1.345.041-.41.05-.836.027-1.28a3.674 3.674 0 0 0-.276-1.242l-.03-.116c.025-.126.055-.234.089-.321.035-.088.057-.187.067-.297.022-.174-.024-.296-.137-.369a.387.387 0 0 1 .221-.258c.107-.044.165-.137.173-.279a.38.38 0 0 0-.01-.187c.123-.053.25-.103.38-.149a.725.725 0 0 1 .385-.032c.205.02.388.078.55.171.16.093.315.199.462.316.289.736.432 1.523.428 2.36-.003.837-.037 1.68-.102 2.528a27.556 27.556 0 0 0-.08 2.48 5.3 5.3 0 0 0 .49 2.216l.049.02c.079.012.14-.018.183-.09.043-.073.104-.104.183-.093a.411.411 0 0 0 .12.041c.078.309.195.6.35.874.155.273.326.546.512.818zm3.582-13.143c.11.025.214.051.31.077.094.027.189.037.282.032.156-.008.296-.039.418-.092a.432.432 0 0 0 .38.32c.198.03.36.072.488.127l.016.305c.026.483.167.938.424 1.362a1.174 1.174 0 0 0-.096.404c-.009.142-.01.275-.003.4.01.187.027.373.053.56.025.186.043.365.052.537.01.187 0 .376-.03.565a.961.961 0 0 1-.243.505c-.005.204-.005.435.001.693.006.258.004.52-.006.786-.01.267-.039.526-.088.78-.05.252-.132.46-.249.623a20.856 20.856 0 0 0 .027 1.406c.018.344.059.748.122 1.214.064.467.19.851.378 1.154.084.12.241.207.47.257.23.05.415.072.556.065.171-.01.345-.046.522-.11a.628.628 0 0 0 .37-.312c.095.01.16.054.195.13a.38.38 0 0 0 .174.179c.87-.421 1.74-.827 2.612-1.217.871-.39 1.724-.833 2.559-1.33.128.055.262.08.403.072.104-.005.207-.018.31-.037l.155-.034c.078-.02.156-.036.234-.048l.002-.152c0-.141.014-.267.039-.378a51.89 51.89 0 0 1-.188-.448 1.45 1.45 0 0 1-.095-.476l-.009-.164c.142-.273.26-.553.355-.84.095-.286.197-.581.306-.884l-.004-.07a19.752 19.752 0 0 0-.118-1.355c-.055-.451-.094-.903-.118-1.356l-.023-.444a4.036 4.036 0 0 1 0-.446.646.646 0 0 0 .268-.272.646.646 0 0 1 .267-.272l.772-.041.128-.241a.73.73 0 0 0 .08-.263c.17-.056.334-.13.493-.225.16-.094.307-.192.443-.293.212-.136.405-.26.579-.37a4.11 4.11 0 0 1 1.09-.491c.2-.059.431-.11.695-.155.125-.006.205-.034.242-.083A1.25 1.25 0 0 1 84.77 5c.189.021.377.039.566.052.188.014.376.016.563.006.375-.02.722-.108 1.043-.266.468-.024.932-.056 1.391-.096.46-.04.923-.072 1.391-.097.406-.02.813-.026 1.22-.016a10 10 0 0 1 1.202.1c.138-.053.293-.085.465-.094.187-.01.379 0 .576.029.197.028.389.022.574-.019.025.171.075.313.152.426a.782.782 0 0 1 .126.404l.005.094c-.107.037-.158.118-.151.243a2.56 2.56 0 0 1-.53.204 2.56 2.56 0 0 0-.529.203 11.198 11.198 0 0 0-1.055.009c-.468.024-.936.064-1.402.12-.467.056-.935.08-1.404.074a3.053 3.053 0 0 1-.699.33 2.806 2.806 0 0 1-.732.144 1.558 1.558 0 0 1-.495-.045 6.938 6.938 0 0 1-1.204.533c-.438.148-.88.292-1.327.433-.446.14-.872.296-1.278.466-.406.17-.758.396-1.056.677-.02.22-.032.436-.036.648-.005.211-.002.418.009.621.011.218.033.42.067.607.033.186.093.37.181.553.08.028.17.046.273.057.102.01.192.013.27.009a.812.812 0 0 0 .233-.048.246.246 0 0 0 .156-.16c.232-.044.465-.068.7-.072.234-.005.469-.013.703-.025.234-.013.463-.032.689-.06.225-.027.446-.078.66-.152a4.14 4.14 0 0 1 .732-.155l.711-.085c.234-.028.474-.068.722-.12.247-.052.5-.147.76-.286.206.068.415.096.626.085.21-.011.418-.007.622.014.114.072.208.153.283.243.075.09.116.198.122.322.012.219-.055.441-.2.668a4.62 4.62 0 0 0-.342.628l-.257.014c-.375.02-.735.09-1.08.209-.347.12-.691.255-1.036.406-.344.151-.689.287-1.034.406-.346.12-.706.19-1.08.21-.063.003-.097.04-.1.11-.005.071-.022.123-.051.156a1.941 1.941 0 0 0-.352-.005c-.36.018-.7.075-1.024.17a4.336 4.336 0 0 1-1.282.173 3.456 3.456 0 0 1-.283-.02.548.548 0 0 1-.291.262.994.994 0 0 0-.34.217c-.04.143-.058.316-.056.52l.01.62c.003.212-.006.412-.028.6a.897.897 0 0 1-.164.455c.02.077.084.101.192.072.108-.029.165.019.172.144.007.14 0 .29-.024.447-.023.158-.03.315-.022.47.015.297.067.619.156.966.089.348.215.666.379.955.163.288.375.524.635.706.26.181.577.263.952.243.25-.013.48-.072.694-.177.214-.105.385-.27.514-.497l.116-.03a.637.637 0 0 1 .177.015.637.637 0 0 0 .177.014c.093-.005.211-.07.353-.194.142-.125.299-.27.47-.436.171-.165.347-.327.526-.485a1.97 1.97 0 0 1 .522-.344c.098-.224.192-.448.282-.672.09-.224.233-.403.43-.539l-.036-.678c.147-.18.306-.345.478-.495.172-.15.3-.336.382-.56.08.027.155.047.226.059.07.012.145.016.223.012a1.377 1.377 0 0 0 .487-.12c.134.165.241.351.322.558.082.207.182.402.3.583-.125.288-.271.632-.438 1.032-.167.4-.35.8-.547 1.202-.198.402-.409.785-.632 1.148-.224.364-.448.646-.672.845-.044.05-.143.11-.295.18a9.03 9.03 0 0 0-.45.387c-.134.125-.26.268-.376.43a6.611 6.611 0 0 0-1.27.63c-.4.256-.799.504-1.193.744a2.508 2.508 0 0 0-.612-.039 4.53 4.53 0 0 0-.56.065 4.927 4.927 0 0 1-.607.067.442.442 0 0 0-.277-.138c-.118-.017-.165-.097-.141-.24-.532-.002-.97-.124-1.31-.365a3.485 3.485 0 0 1-.88-.904 5.749 5.749 0 0 1-.615-1.188c-.163-.43-.333-.843-.51-1.24l-.004-.071c-.004-.078.024-.127.086-.145.062-.02.09-.068.086-.146-.001-.03-.01-.054-.027-.069-.056-.169-.102-.315-.14-.438a1.854 1.854 0 0 1-.07-.443c-.013-.25-.01-.496.008-.74.018-.243.021-.49.008-.739a2.44 2.44 0 0 0-.049-.385.347.347 0 0 0-.083.11c-.07.145-.14.305-.21.48l-.304.017a.333.333 0 0 0-.184.056.504.504 0 0 0-.122.136 3.081 3.081 0 0 0-.14.253c-.293.078-.572.19-.839.338-.266.147-.524.301-.773.463-.25.162-.504.323-.761.486a4.773 4.773 0 0 1-.8.405 1.52 1.52 0 0 1-.58.594l-.07.004a.246.246 0 0 1-.2-.025.334.334 0 0 0-.202-.048c-.047.002-.078.012-.093.028-.451.337-.966.52-1.543.55a2.708 2.708 0 0 1-.447-.011 2.708 2.708 0 0 0-.446-.012c-.047.002-.078.02-.092.052l-.041.096a.616.616 0 0 1-.054.096c-.022.033-.08.051-.173.056a1.952 1.952 0 0 1-.519-.043 1.247 1.247 0 0 0-.54.005 4.579 4.579 0 0 1-.873-.541c-.212-.177-.414-.448-.605-.813a2.105 2.105 0 0 0-.342-.475 1.545 1.545 0 0 1-.32-.5 7.236 7.236 0 0 1-.088-.335 23.287 23.287 0 0 1-.231-1.056 3.162 3.162 0 0 1-.054-.35 4.255 4.255 0 0 1 .007-.551c.014-.181.031-.366.053-.555.062-.597.097-1.198.105-1.8.007-.603.106-1.191.295-1.765a2.754 2.754 0 0 1-.073-.489l-.027-.515a2.1 2.1 0 0 0-.156-.742c.114-.21.165-.44.152-.689-.015-.28-.14-.438-.377-.473l-.004-.07c-.017-.328-.14-.58-.368-.755-.029-.547.086-.963.345-1.25.259-.288.61-.545 1.051-.772.057-.096.077-.176.058-.237zm39.038-2.54c.36-.002.716.006 1.069.027.353.02.709.014 1.067-.02.208.082.395.155.563.216.167.062.375.07.623.026.521.395 1 .863 1.435 1.404l.02.398c.004.36-.04.714-.131 1.063-.092.349-.203.695-.333 1.038-.13.343-.274.68-.429 1.008-.154.329-.302.654-.441.974-.966.974-1.933 1.94-2.9 2.898a63.452 63.452 0 0 1-2.998 2.785c-.024.158-.06.3-.107.429a1.364 1.364 0 0 0-.085.403.61.61 0 0 0 .034.186.67.67 0 0 1 .301.16c.09.081.124.193.1.335l.21-.01c.079-.005.12.024.123.087l.375.003c.595 0 1.187-.046 1.777-.14.59-.093 1.183-.195 1.78-.304.596-.11 1.189-.215 1.778-.316.59-.102 1.18-.176 1.772-.222.138-.054.284-.101.439-.14.154-.04.291-.11.411-.21l.07-.004c.11-.005.193.022.251.081.058.06.142.094.252.104a.72.72 0 0 0 .243-.06c.084-.035.173-.063.266-.084.215-.074.443-.125.684-.153.241-.028.478-.064.71-.107.901-.126 1.796-.224 2.684-.294.888-.07 1.772-.23 2.65-.479a.58.58 0 0 0 .34.205c.142.032.292.063.45.094.159.03.305.066.44.106.135.04.23.129.284.267-.019.235-.091.42-.217.551a3.066 3.066 0 0 1-.438.375 2.018 2.018 0 0 0-.447-.024c-.485.01-.938.097-1.36.26a7.577 7.577 0 0 1-1.306.373c-.155.04-.299.059-.432.058-.133-.001-.269.018-.407.056a22.38 22.38 0 0 1-1.582.271c-.56.076-1.118.164-1.676.264-.558.1-1.104.214-1.637.344-.533.13-1.028.3-1.487.512a1.648 1.648 0 0 1-.146-.098.249.249 0 0 0-.167-.05c-.156.008-.303.04-.44.094a.978.978 0 0 1-.42.069 1.657 1.657 0 0 1-.492.225 6.485 6.485 0 0 1-.534.122 3.937 3.937 0 0 0-.52.133 1.36 1.36 0 0 0-.479.283 1.126 1.126 0 0 0-.462-.082c-.18.002-.303-.05-.372-.156-.35.19-.722.32-1.118.387a7.762 7.762 0 0 1-1.203.11 7.714 7.714 0 0 1-1.962-.284 5.954 5.954 0 0 1-.982-.371 1.898 1.898 0 0 1-.71-.562 1.544 1.544 0 0 1-.261-.502.639.639 0 0 0-.35-.404c.028-.362.064-.716.109-1.062l.132-1.063a11.365 11.365 0 0 0 1.592-1.867c.289-.156.557-.343.804-.559.246-.216.493-.436.74-.66.246-.225.493-.445.74-.661a5.42 5.42 0 0 1 .802-.582.695.695 0 0 1 .185-.28 8.11 8.11 0 0 1 .258-.225c.09-.075.172-.157.245-.247a.721.721 0 0 0 .147-.325 5.428 5.428 0 0 0 1.363-1.315 3.83 3.83 0 0 0 .708-1.727 2.065 2.065 0 0 0-.924-.386 8.816 8.816 0 0 0-1.05-.097c-.313 0-.636.018-.971.05a7.434 7.434 0 0 1-1.02.03 4.867 4.867 0 0 1-1.053.267c-.365.05-.727.097-1.084.14a8.13 8.13 0 0 0-1.058.195c-.347.089-.68.236-.998.44a.637.637 0 0 1-.177-.014.637.637 0 0 0-.176-.014c-.5.01-.963.132-1.39.366l-1.254.687a.36.36 0 0 0-.04.143c.005.094.03.183.073.266a.644.644 0 0 1 .073.266c-.015.017-.022.033-.021.048 0 .016-.006.032-.021.049-.012.078-.028.15-.048.213-.02.064-.043.136-.07.215a5.028 5.028 0 0 0-.204 1.49c.005.406.026.804.062 1.193.036.39.057.787.063 1.194a6.609 6.609 0 0 1-.16 1.416c.097.37.188.761.272 1.171.084.41.184.816.299 1.217.114.4.248.789.4 1.164.154.375.348.729.585 1.06-.014.033-.005.056.027.07.032.014.063.02.094.018l.188-.01c.078-.004.11.026.098.09.034.044.06.086.077.124.018.038.05.072.1.1.033.046.036.108.01.188 0 .313-.063.606-.19.878a2.33 2.33 0 0 0-.212.88 2.14 2.14 0 0 1-.51.097 1.412 1.412 0 0 1-.715-.186 2.96 2.96 0 0 1-.587-.45c-.181-.178-.355-.36-.521-.548a2.853 2.853 0 0 0-.541-.476c-.133-.431-.263-.91-.392-1.435-.13-.525-.321-.968-.575-1.33.055-.144.078-.318.067-.52 0-.313-.044-.62-.13-.92a2.835 2.835 0 0 1-.107-.922 2.32 2.32 0 0 1 .031-.518 3.93 3.93 0 0 0 .055-.52 2.331 2.331 0 0 0-.122-.767 2.331 2.331 0 0 1-.123-.769c.01-.125.03-.248.063-.367a.968.968 0 0 1 .16-.325.944.944 0 0 1-.1-.534c.002-.267.02-.518.055-.754a5.42 5.42 0 0 0 .057-.707 2.747 2.747 0 0 0-.043-.362 2.38 2.38 0 0 0-.088-.336l-.214-.059a.555.555 0 0 0-.265.084.967.967 0 0 0-.214.176c-.06.066-.111.12-.156.16a.22.22 0 0 1-.137.067.543.543 0 0 1-.106-.007.543.543 0 0 0-.106-.006c-.031.002-.088.036-.17.103-.083.067-.181.139-.295.215-.113.076-.223.152-.328.228a.967.967 0 0 1-.25.143.862.862 0 0 1-.42-.155 4.595 4.595 0 0 1-.294-.242 2.517 2.517 0 0 0-.281-.22.477.477 0 0 0-.356-.064.802.802 0 0 1-.098-.3 1.539 1.539 0 0 1-.005-.328l-.02-.374c.099-.209.234-.384.407-.526.172-.142.358-.266.556-.37l.593-.313c.198-.104.38-.23.544-.38l.21-.011c.282 0 .525-.067.73-.203.203-.135.395-.29.573-.464l.547-.533c.186-.182.394-.326.623-.432.176.07.359.126.549.171.19.045.387.07.59.075a2.3 2.3 0 0 0 .628-.127c.215-.074.38-.2.496-.378a.899.899 0 0 0 .402.05c.234.003.467-.045.696-.143.23-.098.45-.215.662-.351.313-.001.62-.037.922-.107.301-.071.602-.145.903-.224.301-.078.603-.153.904-.223.302-.07.609-.106.922-.107a6.22 6.22 0 0 0 1.514-.22 5.53 5.53 0 0 1 1.515-.197z" fill="#FFF" fill-rule="nonzero"/>
    </g>
</svg>
