<svg width="24" height="24" viewBox="0 0 24 24" xmlns="http://www.w3.org/2000/svg">
    <g fill="none" fill-rule="evenodd">
        <path d="M0 0h24v24H0z"/>
        <path d="M22.54 6.67a2.764 2.764 0 0 0-1.945-1.957C18.88 4.25 12 4.25 12 4.25s-6.88 0-8.595.463A2.764 2.764 0 0 0 1.46 6.67C1 8.397 1 12 1 12s0 3.603.46 5.33a2.765 2.765 0 0 0 1.945 1.957C5.12 19.75 12 19.75 12 19.75s6.88 0 8.595-.463a2.765 2.765 0 0 0 1.945-1.957C23 15.603 23 12 23 12s0-3.603-.46-5.33z" fill="#D9252A"/>
        <path fill="#FFF" d="M9.75 15.271V8.73L15.5 12z"/>
    </g>
</svg>
